<?xml version="1.0" encoding="utf-8"?>
<!-- Generator: Adobe Illustrator 24.1.0, SVG Export Plug-In . SVG Version: 6.00 Build 0)  -->
<svg version="1.1" id="Capa_1" xmlns="http://www.w3.org/2000/svg" xmlns:xlink="http://www.w3.org/1999/xlink" x="0px" y="0px"
	 viewBox="0 0 94.3 27.9" style="enable-background:new 0 0 94.3 27.9;" xml:space="preserve">
<g>
	<g>
		<path d="M40.4,5.1h3.2c1.9,0,3,1.1,3,2.7v0c0,1.8-1.4,2.8-3.2,2.8h-1.3V13h-1.7V5.1z M43.5,9.1c0.9,0,1.4-0.5,1.4-1.2v0
			c0-0.8-0.5-1.2-1.4-1.2h-1.3v2.4H43.5z"/>
		<path d="M49.8,5h1.6l3.4,8H53l-0.7-1.8h-3.3L48.2,13h-1.8L49.8,5z M51.7,9.7l-1.1-2.6l-1.1,2.6H51.7z"/>
		<path d="M55.2,9L55.2,9c0-2.3,1.8-4.1,4.2-4.1c1.4,0,2.3,0.4,3.1,1.1l-1.1,1.3c-0.6-0.5-1.2-0.8-2.1-0.8C58,6.5,57,7.7,57,9v0
			c0,1.5,1,2.5,2.4,2.5c0.6,0,1.2-0.2,1.6-0.5V9.9h-1.8V8.4h3.4v3.4c-0.8,0.7-1.9,1.2-3.4,1.2C56.9,13.1,55.2,11.4,55.2,9z"/>
		<path d="M64.1,9L64.1,9c0-2.3,1.8-4.1,4.2-4.1s4.2,1.8,4.2,4.1v0c0,2.2-1.8,4.1-4.2,4.1S64.1,11.3,64.1,9z M70.6,9L70.6,9
			c0-1.4-1-2.5-2.4-2.5S65.9,7.6,65.9,9v0c0,1.4,1,2.5,2.4,2.5C69.7,11.5,70.6,10.4,70.6,9z"/>
		<path d="M77.4,5.1h6v1.5h-4.2v1.6h3.7v1.5h-3.7v1.7h4.3V13h-6C77.4,13,77.4,5.1,77.4,5.1z"/>
		<path d="M85,5.1h1.6l3.7,4.9V5.1H92V13h-1.5l-3.8-5v5H85C85,13,85,5.1,85,5.1z"/>
		<path d="M42.1,17.4h-2.9v-2.4h8.5v2.4h-2.9v7.3h-2.7L42.1,17.4L42.1,17.4z"/>
		<path d="M48.9,15.1h2.7v9.7h-2.7V15.1z"/>
		<path d="M53.4,15.1h7.8v2.3H56v1.5h4.6v2.1H56v1.5h5.2v2.3h-7.8V15.1z"/>
		<path d="M62.6,15.1h2.5l4,5.1v-5.1h2.7v9.7h-2.3l-4.1-5.3v5.3h-2.6C62.6,24.7,62.6,15.1,62.6,15.1z"/>
		<path d="M73.5,15.1h3.7c3.5,0,5.5,2,5.5,4.8v0c0,2.8-2,4.9-5.5,4.9h-3.7L73.5,15.1L73.5,15.1z M77.2,22.4c1.6,0,2.7-0.9,2.7-2.5v0
			c0-1.5-1.1-2.5-2.7-2.5h-1.1v4.9L77.2,22.4L77.2,22.4z"/>
		<path d="M86.7,15h2.6l4.1,9.8h-2.9L89.8,23h-3.7l-0.7,1.7h-2.8L86.7,15z M89,20.9L88,18.2l-1.1,2.8H89z"/>
	</g>
	<path d="M33.4,6.9c-0.8-1.5-2.8-3.4-3.7-4.6c-0.4-0.6-0.9-0.9-1.7-0.9c-7.3,0-14.5,0-21.8,0l0,0C5.6,1.4,5,2,4.6,2.4
		C3.7,3.4,1.7,5.7,1,6.8C1,7,0.9,7.2,0.9,7.4c0,1.4,0.6,2.6,1.7,3.5c0,3,0,6.9,0,9.6v4.1c0,0-0.1,0-0.2,0c-0.5,0.1-0.8,0.4-0.8,0.9
		c0,0.5,0.3,0.8,0.8,1c0.1,0,0.2,0,0.3,0h29.1c0.1,0,0.2,0,0.3,0c0.5-0.1,0.9-0.4,0.9-1c0-0.5-0.4-0.9-0.9-0.9c0,0-0.1,0-0.1,0v-1.8
		c0-3.1,0-8.1,0-11.9c0.8-0.6,1.3-1.4,1.5-2.3l0-0.1C33.6,8,33.7,7.4,33.4,6.9z M26.7,15.6v9h-19v-9H26.7z M29.9,24.6h-1.3V15
		c0-1-0.3-1.3-1.3-1.3H7.1c-1,0-1.3,0.3-1.3,1.3v9.7H4.5V11.8c0.9,0.2,1.8,0.1,2.7-0.2c0.9-0.4,1.7-1,2.2-1.9c0.9,1.4,2.3,2.2,4,2.2
		c0,0,0,0,0,0c1.6,0,3-0.8,3.9-2.2c0.9,1.5,2.2,2.2,3.9,2.2l0,0c1.7,0,3-0.7,3.9-2.2c1.2,1.7,2.8,2.4,4.9,2.1V24.6z M2.7,26.3
		L2.7,26.3L2.7,26.3L2.7,26.3z"/>
</g>
</svg>
